<svg id="Layer_1" data-name="Layer 1" xmlns="http://www.w3.org/2000/svg" viewBox="0 0 1400 400"><defs><style>.cls-1{fill:#ff4b4b;}.cls-2{fill:#4b4bff;}.cls-3{fill:#ff4bff;}.cls-4{fill:#ff884b;}.cls-5{fill:#88ff4b;}</style></defs><path class="cls-1" d="M133.31,281.08Q114,276.52,101.6,268.8l17.79-40.25a113.44,113.44,0,0,0,26.21,10.88,102.38,102.38,0,0,0,27.84,4.09q11.46,0,16.38-2.22t4.92-6.67q0-5.15-6.44-7.72t-21.17-5.62a238.28,238.28,0,0,1-31.59-8.54,53.8,53.8,0,0,1-22-15q-9.36-10.41-9.36-28.2a48.5,48.5,0,0,1,8.66-28.08q8.66-12.63,25.85-19.89t41.77-7.25A152.13,152.13,0,0,1,213.57,118a103.87,103.87,0,0,1,28.67,10.65l-16.61,40q-24.1-12.16-45.63-12.16-21.3,0-21.3,10.29,0,4.92,6.32,7.37t20.83,5.27a215.1,215.1,0,0,1,31.59,8.07,55,55,0,0,1,22.34,14.86q9.48,10.31,9.48,28.08a48,48,0,0,1-8.66,28q-8.65,12.53-25.86,19.89T173,285.64A172,172,0,0,1,133.31,281.08Z"/><path class="cls-2" d="M394.83,240.25V281.9H258.64V118.1H391.78v41.65H312.93v19.19h69.26v39.78H312.93v21.53Z"/><path class="cls-3" d="M535.74,253.35H473.49l-11,28.55H406.33l71.61-163.8h54.29l71.6,163.8h-57.1Zm-15.21-39.78-15.92-41.18L488.7,213.57Z"/><path class="cls-4" d="M682.92,240.72H668V281.9H612.72V118.1h78.86q22.7,0,39.55,7.49t26,21.53q9.12,14,9.13,32.76,0,17.55-8,30.65t-22.93,20.83l34.4,50.54h-59Zm22-75q-5.62-5-16.85-5H668v38.37h20.12q11.23,0,16.85-5t5.61-14.15Q710.53,170.75,704.92,165.72Z"/><path class="cls-5" d="M819,274.76a81.28,81.28,0,0,1-32.65-30.42Q774.51,224.81,774.5,200t11.81-44.34A81.28,81.28,0,0,1,819,125.24q20.82-10.89,46.8-10.88,23.87,0,42.59,8.42a79.11,79.11,0,0,1,30.88,24.34l-34.86,31.12q-15.21-19.19-35.8-19.19-17.33,0-27.85,11.12T830.19,200q0,18.72,10.53,29.83T868.57,241q20.58,0,35.8-19.19l34.86,31.12a79.11,79.11,0,0,1-30.88,24.34q-18.74,8.43-42.59,8.42Q839.78,285.64,819,274.76Z"/><path class="cls-2" d="M1110.6,118.1V281.9h-55.22V221.53h-51V281.9H949.14V118.1h55.23v58h51v-58Z"/><path class="cls-1" d="M1236.62,222.46V281.9H1181.4V221.76L1119.62,118.1h58.27l33.46,56.63L1245,118.1h53.36Z"/></svg>