<svg id="Layer_1" data-name="Layer 1" xmlns="http://www.w3.org/2000/svg" xmlns:xlink="http://www.w3.org/1999/xlink" viewBox="0 0 1400 400"><defs><style>.cls-1{fill:url(#linear-gradient);}</style><linearGradient id="linear-gradient" x1="101.6" y1="200" x2="1298.4" y2="200" gradientUnits="userSpaceOnUse"><stop offset="0" stop-color="#ff4b4b"/><stop offset="1" stop-color="#4b4bff"/></linearGradient></defs><path class="cls-1" d="M217.44,187.48a215.1,215.1,0,0,0-31.59-8.07q-14.52-2.81-20.83-5.27t-6.32-7.37q0-10.29,21.3-10.29,21.52,0,45.63,12.16l16.61-40A103.87,103.87,0,0,0,213.57,118a152.13,152.13,0,0,0-33.11-3.62q-24.57,0-41.77,7.25T112.84,141.5a48.5,48.5,0,0,0-8.66,28.08q0,17.79,9.36,28.2a53.8,53.8,0,0,0,22,15,238.28,238.28,0,0,0,31.59,8.54q14.73,3,21.17,5.62t6.44,7.72q0,4.45-4.92,6.67t-16.38,2.22a102.38,102.38,0,0,1-27.84-4.09,113.44,113.44,0,0,1-26.21-10.88L101.6,268.8q12.41,7.71,31.71,12.28A172,172,0,0,0,173,285.64q24.56,0,41.76-7.37t25.86-19.89a48,48,0,0,0,8.66-28q0-17.78-9.48-28.08A55,55,0,0,0,217.44,187.48Zm95.49,31.24h69.26V178.94H312.93V159.75h78.85V118.1H258.64V281.9H394.83V240.25h-81.9Zm165-100.62L406.33,281.9h56.16l11-28.55h62.25l11,28.55h57.1l-71.6-163.8Zm10.76,95.47,15.91-41.18,15.92,41.18Zm269.57-3q8-13.09,8-30.65,0-18.72-9.13-32.76t-26-21.53q-16.86-7.49-39.55-7.49H612.72V281.9H668V240.72h15l27.85,41.18h59l-34.4-50.54Q750.31,223.64,758.27,210.53ZM704.92,194q-5.62,5-16.85,5H668V160.69h20.12q11.23,0,16.85,5t5.61,14.16Q710.53,189,704.92,194Zm163.65-35q20.58,0,35.8,19.19l34.86-31.12a79.11,79.11,0,0,0-30.88-24.34q-18.74-8.43-42.59-8.42-26,0-46.8,10.88a81.28,81.28,0,0,0-32.65,30.42Q774.51,175.19,774.5,200t11.81,44.34A81.28,81.28,0,0,0,819,274.76q20.82,10.89,46.8,10.88,23.87,0,42.59-8.42a79.11,79.11,0,0,0,30.88-24.34l-34.86-31.12q-15.21,19.19-35.8,19.19-17.33,0-27.85-11.12T830.19,200q0-18.72,10.53-29.83T868.57,159.05Zm186.81,17.08h-51v-58H949.14V281.9h55.23V221.53h51V281.9h55.22V118.1h-55.22Zm189.66-58-33.69,56.63-33.46-56.63h-58.27l61.78,103.66V281.9h55.22V222.46L1298.4,118.1Z"/></svg>